<mxfile host="app.diagrams.net" agent="Mozilla/5.0 (Windows NT 10.0; Win64; x64) AppleWebKit/537.36 (KHTML, like Gecko) Chrome/135.0.0.0 Safari/537.36" version="26.2.13">
  <diagram name="Page-1" id="sF57Q5wPBDoEq4EMCQEI">
    <mxGraphModel dx="786" dy="1136" grid="1" gridSize="10" guides="1" tooltips="1" connect="1" arrows="1" fold="1" page="1" pageScale="1" pageWidth="827" pageHeight="1169" math="0" shadow="0">
      <root>
        <mxCell id="0" />
        <mxCell id="1" parent="0" />
        <mxCell id="GzMYS7ThjWq8j374_1wo-8" value="" style="swimlane;startSize=0;" vertex="1" parent="1">
          <mxGeometry x="190" y="110" width="430" height="550" as="geometry">
            <mxRectangle x="200" y="130" width="50" height="40" as="alternateBounds" />
          </mxGeometry>
        </mxCell>
        <mxCell id="GzMYS7ThjWq8j374_1wo-9" value="Chatbot Application" style="text;html=1;align=center;verticalAlign=middle;resizable=0;points=[];autosize=1;strokeColor=none;fillColor=none;" vertex="1" parent="GzMYS7ThjWq8j374_1wo-8">
          <mxGeometry x="151" width="130" height="30" as="geometry" />
        </mxCell>
        <mxCell id="GzMYS7ThjWq8j374_1wo-23" value="Send messages" style="ellipse;whiteSpace=wrap;html=1;" vertex="1" parent="GzMYS7ThjWq8j374_1wo-8">
          <mxGeometry x="170" y="110" width="120" height="40" as="geometry" />
        </mxCell>
        <mxCell id="GzMYS7ThjWq8j374_1wo-53" style="edgeStyle=orthogonalEdgeStyle;rounded=0;orthogonalLoop=1;jettySize=auto;html=1;exitX=0.5;exitY=0;exitDx=0;exitDy=0;entryX=0.5;entryY=1;entryDx=0;entryDy=0;" edge="1" parent="GzMYS7ThjWq8j374_1wo-8" source="GzMYS7ThjWq8j374_1wo-24" target="GzMYS7ThjWq8j374_1wo-32">
          <mxGeometry relative="1" as="geometry" />
        </mxCell>
        <mxCell id="GzMYS7ThjWq8j374_1wo-24" value="Log in via github" style="ellipse;whiteSpace=wrap;html=1;" vertex="1" parent="GzMYS7ThjWq8j374_1wo-8">
          <mxGeometry x="170" y="320" width="120" height="40" as="geometry" />
        </mxCell>
        <mxCell id="GzMYS7ThjWq8j374_1wo-25" value="Save chats" style="ellipse;whiteSpace=wrap;html=1;" vertex="1" parent="GzMYS7ThjWq8j374_1wo-8">
          <mxGeometry x="301" y="160" width="120" height="40" as="geometry" />
        </mxCell>
        <mxCell id="GzMYS7ThjWq8j374_1wo-26" value="Go to chat history tab" style="ellipse;whiteSpace=wrap;html=1;" vertex="1" parent="GzMYS7ThjWq8j374_1wo-8">
          <mxGeometry x="20" y="455" width="120" height="40" as="geometry" />
        </mxCell>
        <mxCell id="GzMYS7ThjWq8j374_1wo-27" value="Go to settings tab" style="ellipse;whiteSpace=wrap;html=1;" vertex="1" parent="GzMYS7ThjWq8j374_1wo-8">
          <mxGeometry x="20" y="320" width="120" height="40" as="geometry" />
        </mxCell>
        <mxCell id="GzMYS7ThjWq8j374_1wo-28" value="Access old chats" style="ellipse;whiteSpace=wrap;html=1;" vertex="1" parent="GzMYS7ThjWq8j374_1wo-8">
          <mxGeometry x="301" y="430" width="120" height="40" as="geometry" />
        </mxCell>
        <mxCell id="GzMYS7ThjWq8j374_1wo-29" value="Delete chats" style="ellipse;whiteSpace=wrap;html=1;" vertex="1" parent="GzMYS7ThjWq8j374_1wo-8">
          <mxGeometry x="301" y="490" width="120" height="40" as="geometry" />
        </mxCell>
        <mxCell id="GzMYS7ThjWq8j374_1wo-30" value="Go to home/chat tab" style="ellipse;whiteSpace=wrap;html=1;" vertex="1" parent="GzMYS7ThjWq8j374_1wo-8">
          <mxGeometry x="31" y="160" width="120" height="40" as="geometry" />
        </mxCell>
        <mxCell id="GzMYS7ThjWq8j374_1wo-31" value="Switch theme" style="ellipse;whiteSpace=wrap;html=1;" vertex="1" parent="GzMYS7ThjWq8j374_1wo-8">
          <mxGeometry x="31" y="50" width="120" height="40" as="geometry" />
        </mxCell>
        <mxCell id="GzMYS7ThjWq8j374_1wo-32" value="Start new chats" style="ellipse;whiteSpace=wrap;html=1;" vertex="1" parent="GzMYS7ThjWq8j374_1wo-8">
          <mxGeometry x="170" y="200" width="120" height="40" as="geometry" />
        </mxCell>
        <mxCell id="GzMYS7ThjWq8j374_1wo-36" value="" style="endArrow=classic;html=1;rounded=0;entryX=0;entryY=0;entryDx=0;entryDy=0;" edge="1" parent="GzMYS7ThjWq8j374_1wo-8" target="GzMYS7ThjWq8j374_1wo-27">
          <mxGeometry width="50" height="50" relative="1" as="geometry">
            <mxPoint x="-20" y="130" as="sourcePoint" />
            <mxPoint x="57" y="171" as="targetPoint" />
          </mxGeometry>
        </mxCell>
        <mxCell id="GzMYS7ThjWq8j374_1wo-38" value="" style="endArrow=classic;html=1;rounded=0;entryX=0;entryY=0;entryDx=0;entryDy=0;" edge="1" parent="GzMYS7ThjWq8j374_1wo-8" target="GzMYS7ThjWq8j374_1wo-26">
          <mxGeometry width="50" height="50" relative="1" as="geometry">
            <mxPoint x="-20" y="130" as="sourcePoint" />
            <mxPoint x="38" y="326" as="targetPoint" />
          </mxGeometry>
        </mxCell>
        <mxCell id="GzMYS7ThjWq8j374_1wo-40" value="" style="endArrow=classic;html=1;rounded=0;entryX=0;entryY=0.5;entryDx=0;entryDy=0;" edge="1" parent="GzMYS7ThjWq8j374_1wo-8" target="GzMYS7ThjWq8j374_1wo-24">
          <mxGeometry width="50" height="50" relative="1" as="geometry">
            <mxPoint x="140" y="340" as="sourcePoint" />
            <mxPoint x="202.3636364723227" y="364.6984698900287" as="targetPoint" />
          </mxGeometry>
        </mxCell>
        <mxCell id="GzMYS7ThjWq8j374_1wo-45" value="" style="endArrow=classic;html=1;rounded=0;entryX=0;entryY=0.5;entryDx=0;entryDy=0;" edge="1" parent="GzMYS7ThjWq8j374_1wo-8" target="GzMYS7ThjWq8j374_1wo-29">
          <mxGeometry width="50" height="50" relative="1" as="geometry">
            <mxPoint x="140" y="475" as="sourcePoint" />
            <mxPoint x="190" y="425" as="targetPoint" />
          </mxGeometry>
        </mxCell>
        <mxCell id="GzMYS7ThjWq8j374_1wo-46" value="" style="endArrow=classic;html=1;rounded=0;entryX=0;entryY=0.5;entryDx=0;entryDy=0;" edge="1" parent="GzMYS7ThjWq8j374_1wo-8" target="GzMYS7ThjWq8j374_1wo-28">
          <mxGeometry width="50" height="50" relative="1" as="geometry">
            <mxPoint x="140" y="475" as="sourcePoint" />
            <mxPoint x="301" y="510" as="targetPoint" />
          </mxGeometry>
        </mxCell>
        <mxCell id="GzMYS7ThjWq8j374_1wo-47" value="" style="endArrow=classic;html=1;rounded=0;entryX=0;entryY=0;entryDx=0;entryDy=0;" edge="1" parent="GzMYS7ThjWq8j374_1wo-8" source="GzMYS7ThjWq8j374_1wo-24" target="GzMYS7ThjWq8j374_1wo-28">
          <mxGeometry width="50" height="50" relative="1" as="geometry">
            <mxPoint x="150" y="485" as="sourcePoint" />
            <mxPoint x="311" y="460" as="targetPoint" />
          </mxGeometry>
        </mxCell>
        <mxCell id="GzMYS7ThjWq8j374_1wo-48" value="" style="endArrow=classic;html=1;rounded=0;entryX=0.042;entryY=0.325;entryDx=0;entryDy=0;exitX=0.5;exitY=1;exitDx=0;exitDy=0;entryPerimeter=0;" edge="1" parent="GzMYS7ThjWq8j374_1wo-8" target="GzMYS7ThjWq8j374_1wo-29">
          <mxGeometry width="50" height="50" relative="1" as="geometry">
            <mxPoint x="230" y="360" as="sourcePoint" />
            <mxPoint x="319" y="436" as="targetPoint" />
          </mxGeometry>
        </mxCell>
        <mxCell id="GzMYS7ThjWq8j374_1wo-43" value="" style="endArrow=classic;html=1;rounded=0;entryX=0.342;entryY=0.925;entryDx=0;entryDy=0;entryPerimeter=0;exitX=0.733;exitY=0.075;exitDx=0;exitDy=0;exitPerimeter=0;" edge="1" parent="GzMYS7ThjWq8j374_1wo-8" source="GzMYS7ThjWq8j374_1wo-24" target="GzMYS7ThjWq8j374_1wo-25">
          <mxGeometry width="50" height="50" relative="1" as="geometry">
            <mxPoint x="280" y="330" as="sourcePoint" />
            <mxPoint x="330" y="280" as="targetPoint" />
          </mxGeometry>
        </mxCell>
        <mxCell id="GzMYS7ThjWq8j374_1wo-49" value="" style="endArrow=classic;html=1;rounded=0;entryX=0;entryY=1;entryDx=0;entryDy=0;" edge="1" parent="GzMYS7ThjWq8j374_1wo-8" target="GzMYS7ThjWq8j374_1wo-23">
          <mxGeometry width="50" height="50" relative="1" as="geometry">
            <mxPoint x="140" y="170" as="sourcePoint" />
            <mxPoint x="190" y="120" as="targetPoint" />
          </mxGeometry>
        </mxCell>
        <mxCell id="GzMYS7ThjWq8j374_1wo-51" value="" style="endArrow=classic;html=1;rounded=0;entryX=0;entryY=0.5;entryDx=0;entryDy=0;exitX=0.958;exitY=0.825;exitDx=0;exitDy=0;exitPerimeter=0;" edge="1" parent="GzMYS7ThjWq8j374_1wo-8" source="GzMYS7ThjWq8j374_1wo-30" target="GzMYS7ThjWq8j374_1wo-32">
          <mxGeometry width="50" height="50" relative="1" as="geometry">
            <mxPoint x="160" y="190" as="sourcePoint" />
            <mxPoint x="311" y="190" as="targetPoint" />
          </mxGeometry>
        </mxCell>
        <mxCell id="GzMYS7ThjWq8j374_1wo-17" value="User" style="shape=umlActor;verticalLabelPosition=bottom;verticalAlign=top;html=1;outlineConnect=0;" vertex="1" parent="1">
          <mxGeometry x="120" y="200" width="40" height="80" as="geometry" />
        </mxCell>
        <mxCell id="GzMYS7ThjWq8j374_1wo-34" value="" style="endArrow=classic;html=1;rounded=0;" edge="1" parent="1" target="GzMYS7ThjWq8j374_1wo-31">
          <mxGeometry width="50" height="50" relative="1" as="geometry">
            <mxPoint x="170" y="240" as="sourcePoint" />
            <mxPoint x="220" y="190" as="targetPoint" />
          </mxGeometry>
        </mxCell>
        <mxCell id="GzMYS7ThjWq8j374_1wo-35" value="" style="endArrow=classic;html=1;rounded=0;entryX=0.217;entryY=0.025;entryDx=0;entryDy=0;entryPerimeter=0;" edge="1" parent="1" target="GzMYS7ThjWq8j374_1wo-30">
          <mxGeometry width="50" height="50" relative="1" as="geometry">
            <mxPoint x="170" y="240" as="sourcePoint" />
            <mxPoint x="260" y="207" as="targetPoint" />
          </mxGeometry>
        </mxCell>
        <mxCell id="GzMYS7ThjWq8j374_1wo-50" value="" style="endArrow=classic;html=1;rounded=0;" edge="1" parent="1" target="GzMYS7ThjWq8j374_1wo-25">
          <mxGeometry width="50" height="50" relative="1" as="geometry">
            <mxPoint x="340" y="290" as="sourcePoint" />
            <mxPoint x="388" y="264" as="targetPoint" />
          </mxGeometry>
        </mxCell>
      </root>
    </mxGraphModel>
  </diagram>
</mxfile>
